<?xml version="1.0" encoding="utf-8"?>
<!-- Generator: Adobe Illustrator 24.0.0, SVG Export Plug-In . SVG Version: 6.00 Build 0)  -->
<svg version="1.1" id="Слой_1" xmlns="http://www.w3.org/2000/svg" xmlns:xlink="http://www.w3.org/1999/xlink" x="0px" y="0px"
	 viewBox="0 0 400 162" style="enable-background:new 0 0 400 162;" xml:space="preserve">
<style type="text/css">
	.st0{fill:#3C80F1;}
</style>
<g>
	<path class="st0" d="M201.4,89.2c0-14.7,6.5-23.1,19.9-23.1c11.4,0,18.7,6.7,18.7,21.5v1.9c-0.1,1.5-1.3,2.8-2.9,2.8h-25.5
		c0.5,9.7,4.5,13.1,13.4,13.1c3.7,0,7.1-0.6,10.3-1.7c1.1-0.4,2.3,0.3,2.5,1.5l0.6,4.3c0.1,0.9-0.4,1.7-1.2,2
		c-3.7,1.6-8.3,2.5-13.4,2.5C208.2,114,201.4,105.8,201.4,89.2L201.4,89.2z M230.9,85.6c-0.2-8.2-3.8-11.2-9.6-11.2
		c-6.7,0-9.5,3.4-10,11.2H230.9z"/>
	<path class="st0" d="M258.8,74.4v25.8c0,4.1,2.2,5.8,6.1,5.8h0.8c1.7-0.1,3.1,1.2,3.3,2.8l0.1,1.5c0.1,1.6-0.9,3-2.5,3.3
		c-1.4,0.3-2.9,0.4-4.5,0.4c-8.7,0-13-5-13-13.5v-26h-2.8c-1.7,0-3-1.3-3-3V70c0-1.7,1.3-3,3-3h3.1l1.4-8.5c0.2-1.4,1.3-2.4,2.7-2.6
		l2-0.2c1.8-0.2,3.4,1.2,3.4,3.1V67h7.8c1.7,0,3,1.3,3,3v1.5c0,1.7-1.3,3-3,3h-7.9L258.8,74.4z"/>
	<path class="st0" d="M307.7,113.2c-1.8,0-3.3-1.5-3.3-3.3V83.2c0-5.4-2.8-8.2-8.8-8.2c-4.1,0-7.6,1.8-9.2,4.3v30.9
		c0,1.7-1.4,3.1-3.1,3.1h-3.6c-1.7,0-3.1-1.4-3.1-3.1V56.3c0-1.9,1.5-3.4,3.4-3.5l2.7-0.1c2-0.1,3.8,1.5,3.8,3.5v8.1l-0.2,6.2
		l0.2,0.2c3.5-3.2,7.8-4.5,12.2-4.5c9.8,0,15.5,6.2,15.5,17.2v26.7c0,1.8-1.5,3.3-3.3,3.3h-3.2V113.2z"/>
	<path class="st0" d="M321.1,89.2c0-14.7,6.5-23.1,19.9-23.1c11.4,0,18.7,6.7,18.7,21.5v0.9c0,2.1-1.8,3.8-3.9,3.8h-24.5
		c0.5,9.7,4.5,13.1,13.4,13.1c3.4,0,6.5-0.5,9.5-1.4c1.6-0.5,3.2,0.5,3.4,2.1l0.4,2.9c0.2,1.2-0.5,2.3-1.6,2.8
		c-3.6,1.4-8,2.3-12.9,2.3C327.9,114,321.1,105.8,321.1,89.2z M350.7,85.6c-0.2-8.2-3.8-11.2-9.6-11.2c-6.7,0-9.5,3.4-10,11.2H350.7
		z"/>
	<path class="st0" d="M367.1,110V70.2c0-1.7,1.3-3.1,3-3.2l1.8-0.1c1.7-0.1,3.2,1.2,3.3,2.9l0.6,5.7h0.2c2.8-6,7.6-9.2,13.3-9.2
		c0.6,0,1.1,0,1.6,0.1c1.8,0.1,3.1,1.7,3,3.4l-0.2,3.3c-0.1,1.8-1.7,3.2-3.6,3c-0.5-0.1-1-0.1-1.5-0.1c-6.7,0-11.9,5.2-11.9,13.9
		V110c0,1.7-1.4,3.2-3.2,3.2H370C368.5,113.2,367.1,111.8,367.1,110L367.1,110z"/>
	<path class="st0" d="M168.8,52h-18.6c-1.6,0-2.9,1.3-2.9,2.9v4.6v2.3v41.8v0.7v6.1c0,1.6,1.3,2.9,2.9,2.9H169
		c16.9,0,28.2-9.3,28.2-30.3C197.2,62.8,186.8,52,168.8,52z M168.8,103.5h-2.9H158h-0.6V61.7h0.6h1.9h8.8c10.4,0,18.5,6.2,18.5,21.1
		C187.3,98.9,178.8,103.5,168.8,103.5L168.8,103.5z"/>
	<path class="st0" d="M61,14.6c-30.8,0-55.8,25-55.8,55.8c0,3,0.3,5.9,0.9,8.9c0.1,0.7,0.9,1,1.4,0.6c0.4-0.3,0.8-0.5,1.2-0.8
		c1.9-1.1,4-1.6,6.2-1.6c0.5,0,1-0.5,0.9-1c-0.4-2.1-0.6-4.1-0.6-6.1c0-25.3,20.6-45.9,45.9-45.9S107,45.1,107,70.4
		s-32.4,57.6-44,69c-1.1,1-2.8,1-3.8,0c-3.4-3.4-8.6-8.5-14.3-14.8c-0.1,0-0.2,0-0.2,0c-4.5-0.4-8.8-1.5-12.9-3.1
		c-0.3-0.1-0.5-0.2-0.8-0.3c-0.8-0.3-1.5,0.7-1,1.3c7.4,9,15.5,17.4,22.8,24.6c2.3,2.3,5.3,3.4,8.3,3.4c3,0,6-1.1,8.3-3.4
		c20.4-20.1,47.5-49.9,47.5-76.7C116.8,39.7,91.8,14.6,61,14.6z"/>
	<path class="st0" d="M94.2,73.5c-0.1-2-0.3-4-0.7-6s-1-3.9-1.7-5.8s-1.6-3.7-2.6-5.4C85,49.4,79,43.9,71.7,40.5
		c-3.6-1.7-7.6-2.8-11.7-3.1c-0.5,0-1,0-1.6-0.1H58h-0.3H57h-2.6h-5.2h-1.3h-0.3h-0.5c-0.4,0-0.7,0-1.1,0.1
		c-1.5,0.2-2.9,0.6-4.2,1.3c-2.6,1.4-4.7,3.7-5.7,6.5c-0.3,0.7-0.4,1.4-0.6,2.1c-0.1,0.4-0.1,0.7-0.1,1.1V49v0.4V52v5.2V78v5.2v2.6
		c0,1,0,1.4-0.1,2c-0.1,0.5-0.2,0.9-0.3,1.3c-0.1,0.3-0.3,0.6-0.5,0.9c-0.4,0.5-1,0.8-1.9,1.1s-2.1,0.4-3.4,0.3s-2.6-0.4-3.9-0.8
		c-2.6-0.9-5.1-2.3-7-4.1c-1.5-1.5-3.9-1.8-5.9-0.7c-2.4,1.3-3.2,4.4-1.9,6.8c3.5,6.2,8.2,12,14.1,16.5c3,2.2,6.3,4.1,9.8,5.4
		c3.5,1.4,7.2,2.2,10.9,2.6c7.5,0.7,15-0.6,21.8-3.4s12.9-7.2,17.7-12.9l0.1,0.1c2.5-2.9,4.8-6.2,6.4-10s2.4-7.8,2.7-11.6
		c0.1-1,0.1-1.9,0.2-2.9V75C94.2,74.5,94.2,74,94.2,73.5z M84.2,76.1c0,0.8-0.1,1.6-0.1,2.3c-0.3,3.1-0.9,5.9-2,8.5s-2.8,5-4.8,7.4
		l0.1,0.1c-3.9,4.3-8.7,7.9-14.1,10.1c-5.4,2.3-11.3,3.3-16.9,2.7c-5.5-0.5-10.7-2.5-15.3-5.8c1.4-0.1,2.8-0.2,4.3-0.7
		c1.2-0.3,2.4-0.8,3.6-1.5s2.3-1.6,3.2-2.7s1.6-2.3,2.2-3.6c0.5-1.3,0.8-2.5,1-3.7s0.2-2.5,0.2-3.2v-2.6v-5.2V57.3v-5.2v-2.6v-0.2
		v-0.1c0-0.1,0-0.1,0-0.2s0.1-0.2,0.1-0.4c0.2-0.5,0.5-0.9,1-1.1c0.2-0.1,0.5-0.2,0.7-0.2h0.2h0.1H48h1.3h5.2H57h0.7H58h0.3h1
		c2.8,0.2,5.6,1,8.2,2.2c5.3,2.5,10,6.7,13,11.8c0.7,1.3,1.4,2.6,1.9,3.9c0.5,1.4,0.9,2.8,1.2,4.2s0.5,2.9,0.5,4.3v1.1L84.2,76.1z"
		/>
</g>
</svg>
