<?xml version="1.0" encoding="utf-8"?>
<!-- Generator: Adobe Illustrator 24.0.0, SVG Export Plug-In . SVG Version: 6.00 Build 0)  -->
<svg version="1.1" id="Слой_1" xmlns="http://www.w3.org/2000/svg" xmlns:xlink="http://www.w3.org/1999/xlink" x="0px" y="0px"
	 viewBox="0 0 80.7 80.7" style="enable-background:new 0 0 80.7 80.7;" xml:space="preserve">
<style type="text/css">
	.st0{fill:url(#SVGID_1_);}
	.st1{fill-rule:evenodd;clip-rule:evenodd;fill:#FFFFFF;}
	.st2{fill:#FFFFFF;}
</style>
<linearGradient id="SVGID_1_" gradientUnits="userSpaceOnUse" x1="0" y1="41.65" x2="80.7" y2="41.65" gradientTransform="matrix(1 0 0 -1 0 82)">
	<stop  offset="0" style="stop-color:#E43385"/>
	<stop  offset="1" style="stop-color:#5100D4"/>
</linearGradient>
<circle class="st0" cx="40.3" cy="40.3" r="40.3"/>
<g transform="translate(-817.5 -669.89)">
	<path class="st1" d="M861.5,699.5h7.4c0.7,0,2.1-1.7,3-2.9s2-7-4.1-7.8s-9.3,8.9-9.3,8.9h-1.4c0,0-3.2-9.6-9.3-8.9
		s-4.9,6.6-4.1,7.8s2.3,2.9,3,2.9h7.4 M847.1,695c-0.2-0.3-0.9-2.5,1.6-2.4s4.5,5.1,4.5,5.1C848.1,697.3,847.3,695.4,847.1,695z
		 M868.6,695c-0.2,0.3-1,2.2-6.1,2.7c0,0,2-5,4.5-5.1S868.8,694.7,868.6,695z"/>
	<path class="st2" d="M838.2,698.4c-2,0-3.7,1.7-3.7,3.7s1.7,3.7,3.7,3.7h18v-7.4H838.2z"/>
	<path class="st2" d="M877.5,698.4h-18v7.4h18c2,0,3.7-1.7,3.7-3.7S879.6,698.4,877.5,698.4z"/>
	<path class="st2" d="M856.2,708.1h-18v16.6c0,3.9,3.1,7,7,7h11L856.2,708.1z"/>
	<path class="st2" d="M859.5,708.1v23.6h11c3.9,0,7-3.1,7-7v-16.6H859.5z"/>
</g>
</svg>
