<?xml version="1.0" encoding="utf-8"?>
<!-- Generator: Adobe Illustrator 24.0.0, SVG Export Plug-In . SVG Version: 6.00 Build 0)  -->
<svg version="1.1" id="Слой_1" xmlns="http://www.w3.org/2000/svg" xmlns:xlink="http://www.w3.org/1999/xlink" x="0px" y="0px"
	 viewBox="0 0 875.5 142.8" style="enable-background:new 0 0 875.5 142.8;" xml:space="preserve">
<style type="text/css">
	.st0{fill:url(#SVGID_1_);}
	.st1{fill:url(#SVGID_2_);}
	.st2{fill:url(#SVGID_3_);}
	.st3{fill:url(#SVGID_4_);}
	.st4{fill:url(#SVGID_5_);}
	.st5{fill:url(#SVGID_6_);}
	.st6{fill:url(#SVGID_7_);}
	.st7{fill:url(#SVGID_8_);}
	.st8{fill:url(#SVGID_9_);}
	.st9{fill:url(#SVGID_10_);}
	.st10{fill:url(#SVGID_11_);}
	.st11{fill:url(#SVGID_12_);}
</style>
<linearGradient id="SVGID_1_" gradientUnits="userSpaceOnUse" x1="36.03" y1="998.7114" x2="983.75" y2="976.3914" gradientTransform="matrix(1 0 0 1 -36.08 -935.38)">
	<stop  offset="0" style="stop-color:#4400E2"/>
	<stop  offset="4.000000e-02" style="stop-color:#7013C5"/>
	<stop  offset="9.000000e-02" style="stop-color:#9A25AA"/>
	<stop  offset="0.13" style="stop-color:#BC3494"/>
	<stop  offset="0.18" style="stop-color:#D73F82"/>
	<stop  offset="0.23" style="stop-color:#EA4876"/>
	<stop  offset="0.28" style="stop-color:#F54C6E"/>
	<stop  offset="0.33" style="stop-color:#F94E6C"/>
	<stop  offset="1" style="stop-color:#FFD402"/>
</linearGradient>
<path class="st0" d="M249.2,82L216,2.3h-28.4v110.3h20.6V35.9l31.8,76.7h17.9l31.8-77.3v77.3h21.2V2.3h-29.3L249.2,82z"/>
<linearGradient id="SVGID_2_" gradientUnits="userSpaceOnUse" x1="36.49" y1="1018.3495" x2="984.21" y2="996.0195" gradientTransform="matrix(1 0 0 1 -36.08 -935.38)">
	<stop  offset="0" style="stop-color:#4400E2"/>
	<stop  offset="4.000000e-02" style="stop-color:#7013C5"/>
	<stop  offset="9.000000e-02" style="stop-color:#9A25AA"/>
	<stop  offset="0.13" style="stop-color:#BC3494"/>
	<stop  offset="0.18" style="stop-color:#D73F82"/>
	<stop  offset="0.23" style="stop-color:#EA4876"/>
	<stop  offset="0.28" style="stop-color:#F54C6E"/>
	<stop  offset="0.33" style="stop-color:#F94E6C"/>
	<stop  offset="1" style="stop-color:#FFD402"/>
</linearGradient>
<path class="st1" d="M366.1,33.7c-19.6,0-37.7,15.9-37.7,40.3c0,25.8,18.5,40.9,39.6,40.9c18.9,0,31-11,34.9-24.3l-17.3-5.1
	c-2.5,6.8-7.8,11.7-17.5,11.7c-10.3,0-18.9-7.3-19.3-17.4h54.9c0-0.3,0.3-3.4,0.3-6.4C403.9,48.8,389.8,33.7,366.1,33.7L366.1,33.7z
	 M349.2,65.6c0.5-7,6.4-15.1,17.2-15.1c11.8,0,16.8,7.5,17.1,15.1H349.2z"/>
<linearGradient id="SVGID_3_" gradientUnits="userSpaceOnUse" x1="36.2801" y1="1009.1627" x2="984" y2="986.8326" gradientTransform="matrix(1 0 0 1 -36.08 -935.38)">
	<stop  offset="0" style="stop-color:#4400E2"/>
	<stop  offset="4.000000e-02" style="stop-color:#7013C5"/>
	<stop  offset="9.000000e-02" style="stop-color:#9A25AA"/>
	<stop  offset="0.13" style="stop-color:#BC3494"/>
	<stop  offset="0.18" style="stop-color:#D73F82"/>
	<stop  offset="0.23" style="stop-color:#EA4876"/>
	<stop  offset="0.28" style="stop-color:#F54C6E"/>
	<stop  offset="0.33" style="stop-color:#F94E6C"/>
	<stop  offset="1" style="stop-color:#FFD402"/>
</linearGradient>
<path class="st2" d="M445.9,13.2h-18.7V24c0,6.8-3.7,12.1-11.8,12.1h-3.9v18.4h13.9V90c0,14.8,9.4,23.6,24.3,23.6
	c6.1,0,9.8-1.1,11.7-1.9V94.7c-2.1,0.4-4.2,0.6-6.4,0.6c-5.9,0-9-2.2-9-8.9v-32h15.4V36.1h-15.5V13.2z"/>
<linearGradient id="SVGID_4_" gradientUnits="userSpaceOnUse" x1="36.57" y1="1021.7212" x2="984.29" y2="999.4012" gradientTransform="matrix(1 0 0 1 -36.08 -935.38)">
	<stop  offset="0" style="stop-color:#4400E2"/>
	<stop  offset="4.000000e-02" style="stop-color:#7013C5"/>
	<stop  offset="9.000000e-02" style="stop-color:#9A25AA"/>
	<stop  offset="0.13" style="stop-color:#BC3494"/>
	<stop  offset="0.18" style="stop-color:#D73F82"/>
	<stop  offset="0.23" style="stop-color:#EA4876"/>
	<stop  offset="0.28" style="stop-color:#F54C6E"/>
	<stop  offset="0.33" style="stop-color:#F94E6C"/>
	<stop  offset="1" style="stop-color:#FFD402"/>
</linearGradient>
<path class="st3" d="M551.7,36.1h-20.1v9.5c-1.9-4.3-8.3-11.7-22-11.7c-22.3,0-36.9,17.7-36.9,40.1c0,23.2,15,40.8,37.6,40.8
	c10.3,0,18.2-5.3,21.5-12.6v0.9c0,3.2,0.3,6.4,0.8,9.5h19.8c-0.2-1.7-0.6-7-0.6-13.8L551.7,36.1L551.7,36.1z M512.7,96.9
	c-11.2,0-19.2-9-19.2-22.9c0-14,8.1-22.2,19.2-22.2c10.9,0,18.9,8.2,18.9,22.2S523.5,96.9,512.7,96.9L512.7,96.9z"/>
<linearGradient id="SVGID_5_" gradientUnits="userSpaceOnUse" x1="36.1901" y1="1005.4429" x2="983.91" y2="983.1129" gradientTransform="matrix(1 0 0 1 -36.08 -935.38)">
	<stop  offset="0" style="stop-color:#4400E2"/>
	<stop  offset="4.000000e-02" style="stop-color:#7013C5"/>
	<stop  offset="9.000000e-02" style="stop-color:#9A25AA"/>
	<stop  offset="0.13" style="stop-color:#BC3494"/>
	<stop  offset="0.18" style="stop-color:#D73F82"/>
	<stop  offset="0.23" style="stop-color:#EA4876"/>
	<stop  offset="0.28" style="stop-color:#F54C6E"/>
	<stop  offset="0.33" style="stop-color:#F94E6C"/>
	<stop  offset="1" style="stop-color:#FFD402"/>
</linearGradient>
<path class="st4" d="M573.9,0v112.6v0h20.7V0h0H573.9z"/>
<linearGradient id="SVGID_6_" gradientUnits="userSpaceOnUse" x1="36.2404" y1="1007.6658" x2="983.9604" y2="985.3458" gradientTransform="matrix(1 0 0 1 -36.08 -935.38)">
	<stop  offset="0" style="stop-color:#4400E2"/>
	<stop  offset="4.000000e-02" style="stop-color:#7013C5"/>
	<stop  offset="9.000000e-02" style="stop-color:#9A25AA"/>
	<stop  offset="0.13" style="stop-color:#BC3494"/>
	<stop  offset="0.18" style="stop-color:#D73F82"/>
	<stop  offset="0.23" style="stop-color:#EA4876"/>
	<stop  offset="0.28" style="stop-color:#F54C6E"/>
	<stop  offset="0.33" style="stop-color:#F94E6C"/>
	<stop  offset="1" style="stop-color:#FFD402"/>
</linearGradient>
<path class="st5" d="M659.6,2.3h-41.3v110.3h21.5V71.1h19.8c21.8,0,36.3-14.3,36.3-34.4S681.4,2.3,659.6,2.3z M656.9,52.6h-17V21h17
	c10.8,0,17.3,6.1,17.3,15.9C674.2,46.3,667.7,52.6,656.9,52.6z"/>
<linearGradient id="SVGID_7_" gradientUnits="userSpaceOnUse" x1="36.7" y1="1027.0895" x2="984.4199" y2="1004.7595" gradientTransform="matrix(1 0 0 1 -36.08 -935.38)">
	<stop  offset="0" style="stop-color:#4400E2"/>
	<stop  offset="4.000000e-02" style="stop-color:#7013C5"/>
	<stop  offset="9.000000e-02" style="stop-color:#9A25AA"/>
	<stop  offset="0.13" style="stop-color:#BC3494"/>
	<stop  offset="0.18" style="stop-color:#D73F82"/>
	<stop  offset="0.23" style="stop-color:#EA4876"/>
	<stop  offset="0.28" style="stop-color:#F54C6E"/>
	<stop  offset="0.33" style="stop-color:#F94E6C"/>
	<stop  offset="1" style="stop-color:#FFD402"/>
</linearGradient>
<path class="st6" d="M779.5,36.1h-20.1v9.5c-1.9-4.3-8.3-11.7-22-11.7c-22.3,0-36.9,17.7-36.9,40.1c0,23.2,15,40.8,37.6,40.8
	c10.3,0,18.2-5.3,21.5-12.6v0.9c0,3.2,0.3,6.4,0.8,9.5h19.8c-0.2-1.7-0.6-7-0.6-13.8L779.5,36.1L779.5,36.1z M740.5,96.9
	c-11.2,0-19.2-9-19.2-22.9c0-14,8.1-22.2,19.2-22.2c10.9,0,18.9,8.2,18.9,22.2S751.2,96.9,740.5,96.9L740.5,96.9z"/>
<linearGradient id="SVGID_8_" gradientUnits="userSpaceOnUse" x1="37.09" y1="1043.8395" x2="984.8099" y2="1021.5095" gradientTransform="matrix(1 0 0 1 -36.08 -935.38)">
	<stop  offset="0" style="stop-color:#4400E2"/>
	<stop  offset="4.000000e-02" style="stop-color:#7013C5"/>
	<stop  offset="9.000000e-02" style="stop-color:#9A25AA"/>
	<stop  offset="0.13" style="stop-color:#BC3494"/>
	<stop  offset="0.18" style="stop-color:#D73F82"/>
	<stop  offset="0.23" style="stop-color:#EA4876"/>
	<stop  offset="0.28" style="stop-color:#F54C6E"/>
	<stop  offset="0.33" style="stop-color:#F94E6C"/>
	<stop  offset="1" style="stop-color:#FFD402"/>
</linearGradient>
<path class="st7" d="M853.3,36.1l-18.9,44.8l-20.4-44.8h-23.2l32.6,66.9l-18.1,39.8h22l48.2-106.7L853.3,36.1z"/>
<linearGradient id="SVGID_9_" gradientUnits="userSpaceOnUse" x1="35.9711" y1="996.2756" x2="983.691" y2="973.9556" gradientTransform="matrix(1 0 0 1 -36.08 -935.38)">
	<stop  offset="0" style="stop-color:#4400E2"/>
	<stop  offset="4.000000e-02" style="stop-color:#7013C5"/>
	<stop  offset="9.000000e-02" style="stop-color:#9A25AA"/>
	<stop  offset="0.13" style="stop-color:#BC3494"/>
	<stop  offset="0.18" style="stop-color:#D73F82"/>
	<stop  offset="0.23" style="stop-color:#EA4876"/>
	<stop  offset="0.28" style="stop-color:#F54C6E"/>
	<stop  offset="0.33" style="stop-color:#F94E6C"/>
	<stop  offset="1" style="stop-color:#FFD402"/>
</linearGradient>
<path class="st8" d="M140.8,0.6c-5.2,0-9.5,4.2-9.5,9.5c0,0,0,0,0,0v95c0,5.2,4.2,9.5,9.5,9.5c5.2,0,9.5-4.2,9.5-9.5v-95
	C150.2,4.9,146,0.6,140.8,0.6C140.8,0.6,140.8,0.6,140.8,0.6L140.8,0.6z"/>
<linearGradient id="SVGID_10_" gradientUnits="userSpaceOnUse" x1="35.9011" y1="993.1849" x2="983.621" y2="970.8649" gradientTransform="matrix(1 0 0 1 -36.08 -935.38)">
	<stop  offset="0" style="stop-color:#4400E2"/>
	<stop  offset="4.000000e-02" style="stop-color:#7013C5"/>
	<stop  offset="9.000000e-02" style="stop-color:#9A25AA"/>
	<stop  offset="0.13" style="stop-color:#BC3494"/>
	<stop  offset="0.18" style="stop-color:#D73F82"/>
	<stop  offset="0.23" style="stop-color:#EA4876"/>
	<stop  offset="0.28" style="stop-color:#F54C6E"/>
	<stop  offset="0.33" style="stop-color:#F94E6C"/>
	<stop  offset="1" style="stop-color:#FFD402"/>
</linearGradient>
<path class="st9" d="M9.5,0.6C4.2,0.6,0,4.9,0,10.1v95c0,5.2,4.2,9.5,9.5,9.5c5.2,0,9.5-4.2,9.5-9.5v-95C18.9,4.9,14.7,0.6,9.5,0.6
	C9.5,0.6,9.5,0.6,9.5,0.6z"/>
<linearGradient id="SVGID_11_" gradientUnits="userSpaceOnUse" x1="35.92" y1="994.1703" x2="983.6401" y2="971.8503" gradientTransform="matrix(1 0 0 1 -36.08 -935.38)">
	<stop  offset="0" style="stop-color:#4400E2"/>
	<stop  offset="4.000000e-02" style="stop-color:#7013C5"/>
	<stop  offset="9.000000e-02" style="stop-color:#9A25AA"/>
	<stop  offset="0.13" style="stop-color:#BC3494"/>
	<stop  offset="0.18" style="stop-color:#D73F82"/>
	<stop  offset="0.23" style="stop-color:#EA4876"/>
	<stop  offset="0.28" style="stop-color:#F54C6E"/>
	<stop  offset="0.33" style="stop-color:#F94E6C"/>
	<stop  offset="1" style="stop-color:#FFD402"/>
</linearGradient>
<path class="st10" d="M53.2,20.3c-5.2,0-9.5,4.2-9.5,9.5v55.5c0,5.2,4.2,9.5,9.5,9.5c5.2,0,9.5-4.2,9.5-9.5V29.8
	C62.7,24.6,58.5,20.3,53.2,20.3z"/>
<linearGradient id="SVGID_12_" gradientUnits="userSpaceOnUse" x1="35.9501" y1="995.1025" x2="983.66" y2="972.7826" gradientTransform="matrix(1 0 0 1 -36.08 -935.38)">
	<stop  offset="0" style="stop-color:#4400E2"/>
	<stop  offset="4.000000e-02" style="stop-color:#7013C5"/>
	<stop  offset="9.000000e-02" style="stop-color:#9A25AA"/>
	<stop  offset="0.13" style="stop-color:#BC3494"/>
	<stop  offset="0.18" style="stop-color:#D73F82"/>
	<stop  offset="0.23" style="stop-color:#EA4876"/>
	<stop  offset="0.28" style="stop-color:#F54C6E"/>
	<stop  offset="0.33" style="stop-color:#F94E6C"/>
	<stop  offset="1" style="stop-color:#FFD402"/>
</linearGradient>
<path class="st11" d="M97,36.3c-5.2,0-9.5,4.2-9.5,9.5v23.4c0,5.2,4.2,9.5,9.5,9.5c5.2,0,9.5-4.2,9.5-9.5V45.7
	C106.5,40.5,102.2,36.3,97,36.3C97,36.3,97,36.3,97,36.3z"/>
</svg>
