<?xml version="1.0" encoding="utf-8"?>
<!-- Generator: Adobe Illustrator 24.0.0, SVG Export Plug-In . SVG Version: 6.00 Build 0)  -->
<svg version="1.1" id="Слой_1" xmlns="http://www.w3.org/2000/svg" xmlns:xlink="http://www.w3.org/1999/xlink" x="0px" y="0px"
	 viewBox="0 0 158.7 183.2" style="enable-background:new 0 0 158.7 183.2;" xml:space="preserve">
<style type="text/css">
	.st0{fill:#3375BB;}
</style>
<path class="st0" d="M79.3,6.9l4.2-5.5c-2.5-1.9-6-1.9-8.5,0L79.3,6.9z M151.8,28.2l6.9,0.1c0-3.8-3-7-6.8-7c0,0-0.1,0-0.1,0V28.2z
	 M79.3,176.3l-3.8,5.8c2.3,1.5,5.3,1.5,7.7,0L79.3,176.3z M6.9,28.2v-6.9c-3.8,0-6.9,3.1-6.9,6.9c0,0,0,0,0,0.1L6.9,28.2z
	 M75.1,12.4c31.4,24.3,67.3,22.8,76.7,22.8V21.3c-9.8,0-41,1.2-68.3-19.8L75.1,12.4z M144.9,28.1c-0.5,32.1-1.9,54.8-4.5,71.6
	c-2.6,16.6-6.2,26.6-11,33.6c-4.8,7.3-10.8,11.6-19.7,16.9s-20.3,11.2-34.3,20.4l7.7,11.5c13.3-8.8,24.3-14.5,33.7-20.1
	s17.8-11.9,24.1-21c6.3-9.4,10.5-21.6,13.2-39.2c2.7-17.4,4.1-41,4.6-73.5L144.9,28.1z M83.2,170.6c-13.9-9.3-25.3-15.1-34.2-20.4
	s-14.9-9.6-19.7-16.9c-4.7-7-8.4-16.9-10.9-33.6c-2.6-16.8-3.9-39.4-4.5-71.6L0,28.3c0.5,32.4,2,56,4.6,73.4
	c2.7,17.6,6.8,29.8,13.1,39.2c6.3,9.1,14.6,15.4,24,21s20.4,11.2,33.7,20.1L83.2,170.6z M6.9,35.1c9.3,0,45.3,1.6,76.6-22.8
	L75.1,1.5C47.9,22.5,16.6,21.3,6.9,21.3L6.9,35.1z"/>
</svg>
